<svg fill="#94A3B8" xmlns="http://www.w3.org/2000/svg" viewBox="0 0 512 512"><path d="M504 116a6 6 0 0 0 0-1 9 9 0 0 0 0-1 6 6 0 0 0-1-1 9 9 0 0 0-1-1 9 9 0 0 0-1-1l-97-55a8 8 0 0 0-8 0l-96 55a8 8 0 0 0-1 1 8 8 0 0 0-1 0 8 8 0 0 0 0 1l-1 1a10 10 0 0 0 0 1l-1 1a8 8 0 0 0 0 2v105l-80 46V63a8 8 0 0 0 0-2h-1a8 8 0 0 0 0-2h-1a9 9 0 0 0 0-1 9 9 0 0 0-1-1 10 10 0 0 0-1-1L116 1a8 8 0 0 0-8 0L11 56a7 7 0 0 0-1 1 8 8 0 0 0 0 1 8 8 0 0 0-1 1H8a8 8 0 0 0 0 2 8 8 0 0 0-1 2v330a8 8 0 0 0 4 7l193 111a9 9 0 0 0 1 0l1 1a8 8 0 0 0 4 0 9 9 0 0 0 2-1l192-111a8 8 0 0 0 4-7V288l93-53a8 8 0 0 0 4-7V118a9 9 0 0 0-1-2ZM112 17l80 46-80 47-81-47Zm88 60v202l-47 26-33 20V124l46-27Zm0 413L23 389V77l34 20 47 27v215a7 7 0 0 0 0 1 8 8 0 0 0 0 1 6 6 0 0 0 0 1 6 6 0 0 0 1 1 8 8 0 0 0 1 1l1 1a9 9 0 0 0 1 1l92 52Zm8-106-80-45 84-49 92-53 80 46-59 34Zm184 4L216 490v-92l131-75 45-26Zm0-119-33-19-47-27v-91l34 19 46 27Zm8-105-80-46 80-46 81 46Zm8 105v-91l47-27 34-19v91Z"/></svg>