<svg fill="#94A3B8" xmlns="http://www.w3.org/2000/svg" viewBox="0 0 640 512"><path d="M320 105c171 0 303 72 303 151S491 408 320 408 17 335 17 256s132-151 303-151m0-17C143 88 0 163 0 256s143 168 320 168 320-75 320-168S497 88 320 88zM218 243c-8 40-36 36-70 36l14-71c38 0 64-4 56 35zM97 350h37l9-44c41 0 66 3 90-20 26-24 33-66 14-88-9-11-25-16-46-16h-71L97 350zm186-213h37l-9 45c31 0 61-3 75 10 15 14 7 31-9 113h-37c16-79 19-86 13-92-5-6-18-4-47-4l-19 96h-37l33-168zm222 106c-8 41-37 36-70 36l14-71c38 0 63-4 56 35zM384 350h37l9-44c43 0 67 2 90-20 26-24 33-66 14-88-10-11-25-16-46-16h-71l-33 168z"/></svg>